<?xml version="1.0" encoding="UTF-8" standalone="no"?>
<!DOCTYPE svg PUBLIC "-//W3C//DTD SVG 1.1//EN"
 "http://www.w3.org/Graphics/SVG/1.1/DTD/svg11.dtd">
<!-- Generated by graphviz version 14.1.5 (20260411.2331)
 -->
<!-- Title: example_01 Pages: 1 -->
<svg width="221pt" height="217pt"
 viewBox="0.00 0.00 221.00 217.00" xmlns="http://www.w3.org/2000/svg" xmlns:xlink="http://www.w3.org/1999/xlink">
<g id="graph0" class="graph" transform="scale(1 1) rotate(0) translate(4 212.83)">
<title>example_01</title>
<polygon fill="white" stroke="none" points="-4,4 -4,-212.83 216.71,-212.83 216.71,4 -4,4"/>
<!-- one -->
<g id="node1" class="node">
<title>one</title>
<polygon fill="bisque" stroke="#cdb79e" points="138.41,-208.83 84.41,-208.83 84.41,-172.83 138.41,-172.83 138.41,-208.83"/>
<text xml:space="preserve" text-anchor="middle" x="111.41" y="-185.78" font-family="Times,serif" font-size="14.00">One</text>
</g>
<!-- two -->
<g id="node2" class="node">
<title>two</title>
<ellipse fill="beige" stroke="#838b8b" cx="111.41" cy="-118.83" rx="27.81" ry="18"/>
<text xml:space="preserve" text-anchor="middle" x="111.41" y="-113.78" font-family="Times,serif" font-size="14.00">Two</text>
</g>
<!-- one&#45;&gt;two -->
<g id="edge1" class="edge">
<title>one&#45;&gt;two</title>
<path fill="none" stroke="gold" d="M111.41,-172.53C111.41,-165.24 111.41,-156.56 111.41,-148.36"/>
<polygon fill="gold" stroke="gold" points="114.91,-148.45 111.41,-138.45 107.91,-148.45 114.91,-148.45"/>
</g>
<!-- three -->
<g id="node3" class="node">
<title>three</title>
<ellipse fill="antiquewhite" stroke="#eedfcc" cx="32.41" cy="-32.41" rx="32.41" ry="32.41"/>
<text xml:space="preserve" text-anchor="middle" x="32.41" y="-27.36" font-family="Times,serif" font-size="14.00">Three</text>
</g>
<!-- two&#45;&gt;three -->
<g id="edge2" class="edge">
<title>two&#45;&gt;three</title>
<path fill="none" stroke="#ff3030" d="M97.65,-103.13C87.86,-92.66 74.33,-78.21 62.13,-65.17"/>
<polygon fill="#ff3030" stroke="#ff3030" points="64.78,-62.88 55.4,-57.97 59.67,-67.66 64.78,-62.88"/>
</g>
<!-- four -->
<g id="node4" class="node">
<title>four</title>
<ellipse fill="azure" stroke="#c1cdcd" cx="111.41" cy="-32.41" rx="28.32" ry="28.32"/>
<text xml:space="preserve" text-anchor="middle" x="111.41" y="-27.36" font-family="Times,serif" font-size="14.00">Four</text>
</g>
<!-- two&#45;&gt;four -->
<g id="edge3" class="edge">
<title>two&#45;&gt;four</title>
<path fill="none" stroke="#ff3030" d="M111.41,-100.34C111.41,-92.22 111.41,-82.21 111.41,-72.43"/>
<polygon fill="#ff3030" stroke="#ff3030" points="114.91,-72.7 111.41,-62.7 107.91,-72.7 114.91,-72.7"/>
</g>
<!-- five -->
<g id="node5" class="node">
<title>five</title>
<ellipse fill="darkseagreen" stroke="#698b69" cx="185.41" cy="-32.41" rx="27.3" ry="27.3"/>
<text xml:space="preserve" text-anchor="middle" x="185.41" y="-27.36" font-family="Times,serif" font-size="14.00">Five</text>
</g>
<!-- two&#45;&gt;five -->
<g id="edge4" class="edge">
<title>two&#45;&gt;five</title>
<path fill="none" stroke="#ff3030" d="M124.64,-102.74C134.53,-91.46 148.35,-75.69 160.31,-62.05"/>
<polygon fill="#ff3030" stroke="#ff3030" points="162.89,-64.42 166.85,-54.59 157.63,-59.81 162.89,-64.42"/>
</g>
</g>
</svg>
